<?xml version="1.0" encoding="UTF-8"?>
<svg width="920px" height="926px" viewBox="0 0 920 926" version="1.1" xmlns="http://www.w3.org/2000/svg" xmlns:xlink="http://www.w3.org/1999/xlink">
    <title>Combined Shape</title>
    <defs>
        <linearGradient x1="50%" y1="0%" x2="50%" y2="100%" id="linearGradient-1">
            <stop stop-color="#757575" stop-opacity="0.5" offset="0%"></stop>
            <stop stop-color="#000000" stop-opacity="0.5" offset="100%"></stop>
        </linearGradient>
        <path d="M920,0 L920,926 L0,926 L0,0 L920,0 Z M137,829 L85,829 C80.581722,829 77,832.581722 77,837 L77,877 C77,881.418278 80.581722,885 85,885 L137,885 C141.418278,885 145,881.418278 145,877 L145,837 C145,832.581722 141.418278,829 137,829 Z M834,829 L782,829 C777.581722,829 774,832.581722 774,837 L774,877 C774,881.418278 777.581722,885 782,885 L834,885 C838.418278,885 842,881.418278 842,877 L842,837 C842,832.581722 838.418278,829 834,829 Z M137,730 L85,730 C80.581722,730 77,733.581722 77,738 L77,778 C77,782.418278 80.581722,786 85,786 L137,786 C141.418278,786 145,782.418278 145,778 L145,738 C145,733.581722 141.418278,730 137,730 Z M834,730 L782,730 C777.581722,730 774,733.581722 774,738 L774,778 C774,782.418278 777.581722,786 782,786 L834,786 C838.418278,786 842,782.418278 842,778 L842,738 C842,733.581722 838.418278,730 834,730 Z M137,631 L85,631 C80.581722,631 77,634.581722 77,639 L77,679 C77,683.418278 80.581722,687 85,687 L137,687 C141.418278,687 145,683.418278 145,679 L145,639 C145,634.581722 141.418278,631 137,631 Z M834,631 L782,631 C777.581722,631 774,634.581722 774,639 L774,679 C774,683.418278 777.581722,687 782,687 L834,687 C838.418278,687 842,683.418278 842,679 L842,639 C842,634.581722 838.418278,631 834,631 Z M137,532 L85,532 C80.581722,532 77,535.581722 77,540 L77,580 C77,584.418278 80.581722,588 85,588 L137,588 C141.418278,588 145,584.418278 145,580 L145,540 C145,535.581722 141.418278,532 137,532 Z M834,532 L782,532 C777.581722,532 774,535.581722 774,540 L774,580 C774,584.418278 777.581722,588 782,588 L834,588 C838.418278,588 842,584.418278 842,580 L842,540 C842,535.581722 838.418278,532 834,532 Z M137,433 L85,433 C80.581722,433 77,436.581722 77,441 L77,481 C77,485.418278 80.581722,489 85,489 L137,489 C141.418278,489 145,485.418278 145,481 L145,441 C145,436.581722 141.418278,433 137,433 Z M834,433 L782,433 C777.581722,433 774,436.581722 774,441 L774,481 C774,485.418278 777.581722,489 782,489 L834,489 C838.418278,489 842,485.418278 842,481 L842,441 C842,436.581722 838.418278,433 834,433 Z M137,334 L85,334 C80.581722,334 77,337.581722 77,342 L77,382 C77,386.418278 80.581722,390 85,390 L137,390 C141.418278,390 145,386.418278 145,382 L145,342 C145,337.581722 141.418278,334 137,334 Z M834,334 L782,334 C777.581722,334 774,337.581722 774,342 L774,382 C774,386.418278 777.581722,390 782,390 L834,390 C838.418278,390 842,386.418278 842,382 L842,342 C842,337.581722 838.418278,334 834,334 Z M137,235 L85,235 C80.581722,235 77,238.581722 77,243 L77,283 C77,287.418278 80.581722,291 85,291 L137,291 C141.418278,291 145,287.418278 145,283 L145,243 C145,238.581722 141.418278,235 137,235 Z M834,235 L782,235 C777.581722,235 774,238.581722 774,243 L774,283 C774,287.418278 777.581722,291 782,291 L834,291 C838.418278,291 842,287.418278 842,283 L842,243 C842,238.581722 838.418278,235 834,235 Z M137,136 L85,136 C80.581722,136 77,139.581722 77,144 L77,184 C77,188.418278 80.581722,192 85,192 L137,192 C141.418278,192 145,188.418278 145,184 L145,144 C145,139.581722 141.418278,136 137,136 Z M834,136 L782,136 C777.581722,136 774,139.581722 774,144 L774,184 C774,188.418278 777.581722,192 782,192 L834,192 C838.418278,192 842,188.418278 842,184 L842,144 C842,139.581722 838.418278,136 834,136 Z M137,37 L85,37 C80.581722,37 77,40.581722 77,45 L77,85 C77,89.418278 80.581722,93 85,93 L137,93 C141.418278,93 145,89.418278 145,85 L145,45 C145,40.581722 141.418278,37 137,37 Z M834,37 L782,37 C777.581722,37 774,40.581722 774,45 L774,85 C774,89.418278 777.581722,93 782,93 L834,93 C838.418278,93 842,89.418278 842,85 L842,45 C842,40.581722 838.418278,37 834,37 Z" id="path-2"></path>
        <filter x="-0.2%" y="-0.2%" width="100.4%" height="100.4%" filterUnits="objectBoundingBox" id="filter-3">
            <feGaussianBlur stdDeviation="1.5" in="SourceAlpha" result="shadowBlurInner1"></feGaussianBlur>
            <feOffset dx="0" dy="1" in="shadowBlurInner1" result="shadowOffsetInner1"></feOffset>
            <feComposite in="shadowOffsetInner1" in2="SourceAlpha" operator="arithmetic" k2="-1" k3="1" result="shadowInnerInner1"></feComposite>
            <feColorMatrix values="0 0 0 0 0   0 0 0 0 0   0 0 0 0 0  0 0 0 0.5 0" type="matrix" in="shadowInnerInner1"></feColorMatrix>
        </filter>
    </defs>
    <g id="Page-1" stroke="none" stroke-width="1" fill="none" fill-rule="evenodd">
        <g id="Combined-Shape">
            <use fill="#000000" fill-rule="evenodd" xlink:href="#path-2"></use>
            <use fill="url(#linearGradient-1)" fill-rule="evenodd" xlink:href="#path-2"></use>
            <use fill="black" fill-opacity="1" filter="url(#filter-3)" xlink:href="#path-2"></use>
            <path stroke="#383838" stroke-width="1" d="M919.5,0.5 L919.5,925.5 L0.5,925.5 L0.5,0.5 L919.5,0.5 Z M137,828.5 L85,828.5 C82.6527898,828.5 80.5277898,829.451395 78.9895924,830.989592 C77.4513949,832.52779 76.5,834.65279 76.5,837 L76.5,877 C76.5,879.34721 77.4513949,881.47221 78.9895924,883.010408 C80.5277898,884.548605 82.6527898,885.5 85,885.5 L137,885.5 C139.34721,885.5 141.47221,884.548605 143.010408,883.010408 C144.548605,881.47221 145.5,879.34721 145.5,877 L145.5,837 C145.5,834.65279 144.548605,832.52779 143.010408,830.989592 C141.47221,829.451395 139.34721,828.5 137,828.5 Z M834,828.5 L782,828.5 C779.65279,828.5 777.52779,829.451395 775.989592,830.989592 C774.451395,832.52779 773.5,834.65279 773.5,837 L773.5,877 C773.5,879.34721 774.451395,881.47221 775.989592,883.010408 C777.52779,884.548605 779.65279,885.5 782,885.5 L834,885.5 C836.34721,885.5 838.47221,884.548605 840.010408,883.010408 C841.548605,881.47221 842.5,879.34721 842.5,877 L842.5,837 C842.5,834.65279 841.548605,832.52779 840.010408,830.989592 C838.47221,829.451395 836.34721,828.5 834,828.5 Z M137,729.5 L85,729.5 C82.6527898,729.5 80.5277898,730.451395 78.9895924,731.989592 C77.4513949,733.52779 76.5,735.65279 76.5,738 L76.5,778 C76.5,780.34721 77.4513949,782.47221 78.9895924,784.010408 C80.5277898,785.548605 82.6527898,786.5 85,786.5 L137,786.5 C139.34721,786.5 141.47221,785.548605 143.010408,784.010408 C144.548605,782.47221 145.5,780.34721 145.5,778 L145.5,738 C145.5,735.65279 144.548605,733.52779 143.010408,731.989592 C141.47221,730.451395 139.34721,729.5 137,729.5 Z M834,729.5 L782,729.5 C779.65279,729.5 777.52779,730.451395 775.989592,731.989592 C774.451395,733.52779 773.5,735.65279 773.5,738 L773.5,778 C773.5,780.34721 774.451395,782.47221 775.989592,784.010408 C777.52779,785.548605 779.65279,786.5 782,786.5 L834,786.5 C836.34721,786.5 838.47221,785.548605 840.010408,784.010408 C841.548605,782.47221 842.5,780.34721 842.5,778 L842.5,738 C842.5,735.65279 841.548605,733.52779 840.010408,731.989592 C838.47221,730.451395 836.34721,729.5 834,729.5 Z M137,630.5 L85,630.5 C82.6527898,630.5 80.5277898,631.451395 78.9895924,632.989592 C77.4513949,634.52779 76.5,636.65279 76.5,639 L76.5,679 C76.5,681.34721 77.4513949,683.47221 78.9895924,685.010408 C80.5277898,686.548605 82.6527898,687.5 85,687.5 L137,687.5 C139.34721,687.5 141.47221,686.548605 143.010408,685.010408 C144.548605,683.47221 145.5,681.34721 145.5,679 L145.5,639 C145.5,636.65279 144.548605,634.52779 143.010408,632.989592 C141.47221,631.451395 139.34721,630.5 137,630.5 Z M834,630.5 L782,630.5 C779.65279,630.5 777.52779,631.451395 775.989592,632.989592 C774.451395,634.52779 773.5,636.65279 773.5,639 L773.5,679 C773.5,681.34721 774.451395,683.47221 775.989592,685.010408 C777.52779,686.548605 779.65279,687.5 782,687.5 L834,687.5 C836.34721,687.5 838.47221,686.548605 840.010408,685.010408 C841.548605,683.47221 842.5,681.34721 842.5,679 L842.5,639 C842.5,636.65279 841.548605,634.52779 840.010408,632.989592 C838.47221,631.451395 836.34721,630.5 834,630.5 Z M137,531.5 L85,531.5 C82.6527898,531.5 80.5277898,532.451395 78.9895924,533.989592 C77.4513949,535.52779 76.5,537.65279 76.5,540 L76.5,580 C76.5,582.34721 77.4513949,584.47221 78.9895924,586.010408 C80.5277898,587.548605 82.6527898,588.5 85,588.5 L137,588.5 C139.34721,588.5 141.47221,587.548605 143.010408,586.010408 C144.548605,584.47221 145.5,582.34721 145.5,580 L145.5,540 C145.5,537.65279 144.548605,535.52779 143.010408,533.989592 C141.47221,532.451395 139.34721,531.5 137,531.5 Z M834,531.5 L782,531.5 C779.65279,531.5 777.52779,532.451395 775.989592,533.989592 C774.451395,535.52779 773.5,537.65279 773.5,540 L773.5,580 C773.5,582.34721 774.451395,584.47221 775.989592,586.010408 C777.52779,587.548605 779.65279,588.5 782,588.5 L834,588.5 C836.34721,588.5 838.47221,587.548605 840.010408,586.010408 C841.548605,584.47221 842.5,582.34721 842.5,580 L842.5,540 C842.5,537.65279 841.548605,535.52779 840.010408,533.989592 C838.47221,532.451395 836.34721,531.5 834,531.5 Z M137,432.5 L85,432.5 C82.6527898,432.5 80.5277898,433.451395 78.9895924,434.989592 C77.4513949,436.52779 76.5,438.65279 76.5,441 L76.5,481 C76.5,483.34721 77.4513949,485.47221 78.9895924,487.010408 C80.5277898,488.548605 82.6527898,489.5 85,489.5 L137,489.5 C139.34721,489.5 141.47221,488.548605 143.010408,487.010408 C144.548605,485.47221 145.5,483.34721 145.5,481 L145.5,441 C145.5,438.65279 144.548605,436.52779 143.010408,434.989592 C141.47221,433.451395 139.34721,432.5 137,432.5 Z M834,432.5 L782,432.5 C779.65279,432.5 777.52779,433.451395 775.989592,434.989592 C774.451395,436.52779 773.5,438.65279 773.5,441 L773.5,481 C773.5,483.34721 774.451395,485.47221 775.989592,487.010408 C777.52779,488.548605 779.65279,489.5 782,489.5 L834,489.5 C836.34721,489.5 838.47221,488.548605 840.010408,487.010408 C841.548605,485.47221 842.5,483.34721 842.5,481 L842.5,441 C842.5,438.65279 841.548605,436.52779 840.010408,434.989592 C838.47221,433.451395 836.34721,432.5 834,432.5 Z M137,333.5 L85,333.5 C82.6527898,333.5 80.5277898,334.451395 78.9895924,335.989592 C77.4513949,337.52779 76.5,339.65279 76.5,342 L76.5,382 C76.5,384.34721 77.4513949,386.47221 78.9895924,388.010408 C80.5277898,389.548605 82.6527898,390.5 85,390.5 L137,390.5 C139.34721,390.5 141.47221,389.548605 143.010408,388.010408 C144.548605,386.47221 145.5,384.34721 145.5,382 L145.5,342 C145.5,339.65279 144.548605,337.52779 143.010408,335.989592 C141.47221,334.451395 139.34721,333.5 137,333.5 Z M834,333.5 L782,333.5 C779.65279,333.5 777.52779,334.451395 775.989592,335.989592 C774.451395,337.52779 773.5,339.65279 773.5,342 L773.5,382 C773.5,384.34721 774.451395,386.47221 775.989592,388.010408 C777.52779,389.548605 779.65279,390.5 782,390.5 L834,390.5 C836.34721,390.5 838.47221,389.548605 840.010408,388.010408 C841.548605,386.47221 842.5,384.34721 842.5,382 L842.5,342 C842.5,339.65279 841.548605,337.52779 840.010408,335.989592 C838.47221,334.451395 836.34721,333.5 834,333.5 Z M137,234.5 L85,234.5 C82.6527898,234.5 80.5277898,235.451395 78.9895924,236.989592 C77.4513949,238.52779 76.5,240.65279 76.5,243 L76.5,283 C76.5,285.34721 77.4513949,287.47221 78.9895924,289.010408 C80.5277898,290.548605 82.6527898,291.5 85,291.5 L137,291.5 C139.34721,291.5 141.47221,290.548605 143.010408,289.010408 C144.548605,287.47221 145.5,285.34721 145.5,283 L145.5,243 C145.5,240.65279 144.548605,238.52779 143.010408,236.989592 C141.47221,235.451395 139.34721,234.5 137,234.5 Z M834,234.5 L782,234.5 C779.65279,234.5 777.52779,235.451395 775.989592,236.989592 C774.451395,238.52779 773.5,240.65279 773.5,243 L773.5,283 C773.5,285.34721 774.451395,287.47221 775.989592,289.010408 C777.52779,290.548605 779.65279,291.5 782,291.5 L834,291.5 C836.34721,291.5 838.47221,290.548605 840.010408,289.010408 C841.548605,287.47221 842.5,285.34721 842.5,283 L842.5,243 C842.5,240.65279 841.548605,238.52779 840.010408,236.989592 C838.47221,235.451395 836.34721,234.5 834,234.5 Z M137,135.5 L85,135.5 C82.6527898,135.5 80.5277898,136.451395 78.9895924,137.989592 C77.4513949,139.52779 76.5,141.65279 76.5,144 L76.5,184 C76.5,186.34721 77.4513949,188.47221 78.9895924,190.010408 C80.5277898,191.548605 82.6527898,192.5 85,192.5 L137,192.5 C139.34721,192.5 141.47221,191.548605 143.010408,190.010408 C144.548605,188.47221 145.5,186.34721 145.5,184 L145.5,144 C145.5,141.65279 144.548605,139.52779 143.010408,137.989592 C141.47221,136.451395 139.34721,135.5 137,135.5 Z M834,135.5 L782,135.5 C779.65279,135.5 777.52779,136.451395 775.989592,137.989592 C774.451395,139.52779 773.5,141.65279 773.5,144 L773.5,184 C773.5,186.34721 774.451395,188.47221 775.989592,190.010408 C777.52779,191.548605 779.65279,192.5 782,192.5 L834,192.5 C836.34721,192.5 838.47221,191.548605 840.010408,190.010408 C841.548605,188.47221 842.5,186.34721 842.5,184 L842.5,144 C842.5,141.65279 841.548605,139.52779 840.010408,137.989592 C838.47221,136.451395 836.34721,135.5 834,135.5 Z M137,36.5 L85,36.5 C82.6527898,36.5 80.5277898,37.4513949 78.9895924,38.9895924 C77.4513949,40.5277898 76.5,42.6527898 76.5,45 L76.5,85 C76.5,87.3472102 77.4513949,89.4722102 78.9895924,91.0104076 C80.5277898,92.5486051 82.6527898,93.5 85,93.5 L137,93.5 C139.34721,93.5 141.47221,92.5486051 143.010408,91.0104076 C144.548605,89.4722102 145.5,87.3472102 145.5,85 L145.5,45 C145.5,42.6527898 144.548605,40.5277898 143.010408,38.9895924 C141.47221,37.4513949 139.34721,36.5 137,36.5 Z M834,36.5 L782,36.5 C779.65279,36.5 777.52779,37.4513949 775.989592,38.9895924 C774.451395,40.5277898 773.5,42.6527898 773.5,45 L773.5,85 C773.5,87.3472102 774.451395,89.4722102 775.989592,91.0104076 C777.52779,92.5486051 779.65279,93.5 782,93.5 L834,93.5 C836.34721,93.5 838.47221,92.5486051 840.010408,91.0104076 C841.548605,89.4722102 842.5,87.3472102 842.5,85 L842.5,45 C842.5,42.6527898 841.548605,40.5277898 840.010408,38.9895924 C838.47221,37.4513949 836.34721,36.5 834,36.5 Z" stroke-linejoin="square"></path>
        </g>
    </g>
</svg>